<?xml version="1.0" standalone="no"?><!DOCTYPE svg PUBLIC "-//W3C//DTD SVG 1.1//EN"
        "http://www.w3.org/Graphics/SVG/1.1/DTD/svg11.dtd">
<svg t="1603870152038" class="icon" viewBox="0 0 1561 1024" version="1.1" xmlns="http://www.w3.org/2000/svg" p-id="877"
     width="609.765625" height="400">
  <defs>
    <style type="text/css"></style>
  </defs>
  <path d="M589.94559781 188.46458955h-78.82499077a35.29477235 35.29477235 0 0 0-36.47126445 34.1182796v90.5899151a31.76529473 31.76529473 0 0 0 12.94141645 25.8828329l288.24063808 218.82758678a34.11827961 34.11827961 0 0 0 41.1772342 0L1105.24927004 339.05561714a31.76529473 31.76529473 0 0 0 12.94141646-25.88283289V222.58286915a35.29477235 35.29477235 0 0 0-36.47126445-34.1182796H589.94559781z m208.23915524 649.42380575a96.47237694 96.47237694 0 0 1-58.82462039-24.70634012C657.00566489 750.82795782 395.82435181 561.4126809 325.23480709 502.58806054c-34.11827961-28.23581775-27.05932499-60.00111247 0-98.82536182s58.82462036-56.4716355 100.0018546-24.70634012l347.06525846 270.59325254a34.11827961 34.11827961 0 0 0 41.17723418 0l352.94772032-270.59325254c40.00074144-31.76529473 69.41305194-12.94141644 100.00185393 24.70634012s38.82424932 70.58954406 0 98.82536182c-70.58954406 58.82462036-331.77085716 248.23989665-414.12532492 310.59399462a91.76640722 91.76640722 0 0 1-54.11865065 23.52984803z"
        fill="#3187FD" p-id="878"></path>
</svg>